<svg width="926" height="326" viewBox="0 0 926 326" fill="none" xmlns="http://www.w3.org/2000/svg">
<rect width="926" height="326" fill="white"/>
<rect x="376" y="100" width="183" height="82" fill="#705FDB"/>
<path d="M401.642 133.182H406.784V156.25C406.784 157.822 406.486 159.119 405.889 160.142C405.293 161.165 404.431 161.927 403.304 162.429C402.177 162.931 400.809 163.182 399.199 163.182C399.009 163.182 398.834 163.177 398.673 163.168C398.512 163.168 398.337 163.163 398.148 163.153V158.963C398.29 158.973 398.418 158.977 398.531 158.977C398.645 158.987 398.763 158.991 398.886 158.991C399.871 158.991 400.577 158.75 401.003 158.267C401.429 157.794 401.642 157.098 401.642 156.179V133.182ZM404.199 130.085C403.375 130.085 402.67 129.815 402.082 129.276C401.505 128.726 401.216 128.068 401.216 127.301C401.216 126.525 401.505 125.866 402.082 125.327C402.67 124.777 403.375 124.503 404.199 124.503C405.013 124.503 405.709 124.777 406.287 125.327C406.874 125.866 407.168 126.525 407.168 127.301C407.168 128.068 406.874 128.726 406.287 129.276C405.709 129.815 405.013 130.085 404.199 130.085ZM418.35 155.44C416.968 155.44 415.722 155.194 414.614 154.702C413.516 154.2 412.645 153.461 412.001 152.486C411.366 151.51 411.049 150.308 411.049 148.878C411.049 147.647 411.276 146.629 411.731 145.824C412.185 145.019 412.806 144.375 413.592 143.892C414.378 143.409 415.263 143.045 416.248 142.798C417.242 142.543 418.27 142.358 419.33 142.244C420.609 142.112 421.646 141.993 422.441 141.889C423.237 141.776 423.814 141.605 424.174 141.378C424.543 141.141 424.728 140.777 424.728 140.284V140.199C424.728 139.129 424.411 138.3 423.776 137.713C423.142 137.126 422.228 136.832 421.035 136.832C419.775 136.832 418.776 137.107 418.038 137.656C417.308 138.205 416.816 138.854 416.56 139.602L411.759 138.92C412.138 137.595 412.763 136.487 413.634 135.597C414.505 134.697 415.571 134.025 416.83 133.58C418.09 133.125 419.482 132.898 421.006 132.898C422.058 132.898 423.104 133.021 424.146 133.267C425.187 133.513 426.139 133.92 427.001 134.489C427.862 135.047 428.554 135.81 429.075 136.776C429.605 137.741 429.87 138.949 429.87 140.398V155H424.927V152.003H424.756C424.444 152.609 424.004 153.177 423.435 153.707C422.877 154.228 422.171 154.65 421.319 154.972C420.476 155.284 419.487 155.44 418.35 155.44ZM419.685 151.662C420.718 151.662 421.612 151.458 422.37 151.051C423.128 150.634 423.71 150.085 424.117 149.403C424.534 148.722 424.742 147.978 424.742 147.173V144.602C424.581 144.735 424.307 144.858 423.918 144.972C423.54 145.085 423.113 145.185 422.64 145.27C422.166 145.355 421.698 145.431 421.234 145.497C420.77 145.563 420.367 145.62 420.026 145.668C419.259 145.772 418.573 145.942 417.967 146.179C417.361 146.416 416.882 146.747 416.532 147.173C416.182 147.59 416.006 148.13 416.006 148.793C416.006 149.74 416.352 150.455 417.043 150.938C417.735 151.42 418.615 151.662 419.685 151.662ZM453.748 133.182L445.978 155H440.296L432.526 133.182H438.009L443.023 149.389H443.251L448.279 133.182H453.748ZM462.96 155.44C461.577 155.44 460.332 155.194 459.224 154.702C458.125 154.2 457.254 153.461 456.61 152.486C455.976 151.51 455.658 150.308 455.658 148.878C455.658 147.647 455.886 146.629 456.34 145.824C456.795 145.019 457.415 144.375 458.201 143.892C458.987 143.409 459.872 143.045 460.857 142.798C461.852 142.543 462.879 142.358 463.94 142.244C465.218 142.112 466.255 141.993 467.05 141.889C467.846 141.776 468.424 141.605 468.783 141.378C469.153 141.141 469.337 140.777 469.337 140.284V140.199C469.337 139.129 469.02 138.3 468.386 137.713C467.751 137.126 466.837 136.832 465.644 136.832C464.385 136.832 463.386 137.107 462.647 137.656C461.918 138.205 461.425 138.854 461.17 139.602L456.369 138.92C456.747 137.595 457.372 136.487 458.244 135.597C459.115 134.697 460.18 134.025 461.44 133.58C462.699 133.125 464.091 132.898 465.616 132.898C466.667 132.898 467.713 133.021 468.755 133.267C469.797 133.513 470.748 133.92 471.61 134.489C472.472 135.047 473.163 135.81 473.684 136.776C474.214 137.741 474.479 138.949 474.479 140.398V155H469.536V152.003H469.366C469.053 152.609 468.613 153.177 468.045 153.707C467.486 154.228 466.781 154.65 465.928 154.972C465.085 155.284 464.096 155.44 462.96 155.44ZM464.295 151.662C465.327 151.662 466.222 151.458 466.979 151.051C467.737 150.634 468.319 150.085 468.727 149.403C469.143 148.722 469.352 147.978 469.352 147.173V144.602C469.191 144.735 468.916 144.858 468.528 144.972C468.149 145.085 467.723 145.185 467.249 145.27C466.776 145.355 466.307 145.431 465.843 145.497C465.379 145.563 464.977 145.62 464.636 145.668C463.869 145.772 463.182 145.942 462.576 146.179C461.97 146.416 461.492 146.747 461.141 147.173C460.791 147.59 460.616 148.13 460.616 148.793C460.616 149.74 460.961 150.455 461.653 150.938C462.344 151.42 463.225 151.662 464.295 151.662ZM484.792 125.909V155H479.65V125.909H484.792ZM490.08 155V133.182H495.222V155H490.08ZM492.665 130.085C491.85 130.085 491.15 129.815 490.562 129.276C489.975 128.726 489.682 128.068 489.682 127.301C489.682 126.525 489.975 125.866 490.562 125.327C491.15 124.777 491.85 124.503 492.665 124.503C493.489 124.503 494.189 124.777 494.767 125.327C495.354 125.866 495.648 126.525 495.648 127.301C495.648 128.068 495.354 128.726 494.767 129.276C494.189 129.815 493.489 130.085 492.665 130.085ZM505.651 142.216V155H500.509V133.182H505.424V136.889H505.68C506.182 135.668 506.982 134.697 508.08 133.977C509.188 133.258 510.557 132.898 512.185 132.898C513.691 132.898 515.003 133.22 516.12 133.864C517.247 134.508 518.118 135.44 518.734 136.662C519.359 137.884 519.666 139.366 519.657 141.108V155H514.515V141.903C514.515 140.445 514.136 139.304 513.379 138.48C512.63 137.656 511.594 137.244 510.268 137.244C509.368 137.244 508.568 137.443 507.867 137.841C507.176 138.229 506.631 138.793 506.234 139.531C505.845 140.27 505.651 141.165 505.651 142.216ZM535.779 133.182V137.159H523.237V133.182H535.779ZM526.333 127.955H531.475V148.438C531.475 149.129 531.579 149.659 531.788 150.028C532.005 150.388 532.29 150.634 532.64 150.767C532.99 150.9 533.379 150.966 533.805 150.966C534.127 150.966 534.42 150.942 534.685 150.895C534.96 150.848 535.168 150.805 535.31 150.767L536.177 154.787C535.902 154.882 535.509 154.986 534.998 155.099C534.496 155.213 533.88 155.279 533.151 155.298C531.863 155.336 530.703 155.142 529.671 154.716C528.639 154.28 527.82 153.608 527.214 152.699C526.617 151.79 526.324 150.653 526.333 149.29V127.955Z" fill="white"/>
<path d="M257.795 225.545H259.909V238.023C259.909 239.136 259.705 240.082 259.295 240.861C258.886 241.639 258.31 242.23 257.565 242.634C256.821 243.037 255.943 243.239 254.932 243.239C253.977 243.239 253.128 243.065 252.384 242.719C251.639 242.366 251.054 241.866 250.628 241.219C250.202 240.571 249.989 239.801 249.989 238.909H252.068C252.068 239.403 252.19 239.835 252.435 240.205C252.685 240.568 253.026 240.852 253.457 241.057C253.889 241.261 254.381 241.364 254.932 241.364C255.54 241.364 256.057 241.236 256.483 240.98C256.909 240.724 257.233 240.349 257.455 239.855C257.682 239.355 257.795 238.744 257.795 238.023V225.545ZM267.724 243.307C266.895 243.307 266.142 243.151 265.466 242.838C264.79 242.52 264.253 242.062 263.855 241.466C263.457 240.864 263.259 240.136 263.259 239.284C263.259 238.534 263.406 237.926 263.702 237.46C263.997 236.989 264.392 236.619 264.886 236.352C265.381 236.085 265.926 235.886 266.523 235.756C267.125 235.619 267.73 235.511 268.338 235.432C269.134 235.33 269.778 235.253 270.273 235.202C270.773 235.145 271.136 235.051 271.364 234.92C271.597 234.79 271.713 234.562 271.713 234.239V234.17C271.713 233.33 271.483 232.676 271.023 232.21C270.568 231.744 269.878 231.511 268.952 231.511C267.991 231.511 267.239 231.722 266.693 232.142C266.148 232.562 265.764 233.011 265.543 233.489L263.634 232.807C263.974 232.011 264.429 231.392 264.997 230.949C265.571 230.5 266.196 230.187 266.872 230.011C267.554 229.83 268.224 229.739 268.884 229.739C269.304 229.739 269.787 229.79 270.332 229.892C270.884 229.989 271.415 230.19 271.926 230.497C272.443 230.804 272.872 231.267 273.213 231.886C273.554 232.506 273.724 233.335 273.724 234.375V243H271.713V241.227H271.611C271.474 241.511 271.247 241.815 270.929 242.139C270.611 242.463 270.188 242.739 269.659 242.966C269.131 243.193 268.486 243.307 267.724 243.307ZM268.031 241.5C268.827 241.5 269.497 241.344 270.043 241.031C270.594 240.719 271.009 240.315 271.287 239.821C271.571 239.327 271.713 238.807 271.713 238.261V236.42C271.628 236.523 271.44 236.616 271.151 236.702C270.866 236.781 270.537 236.852 270.162 236.915C269.793 236.972 269.432 237.023 269.08 237.068C268.733 237.108 268.452 237.142 268.236 237.17C267.713 237.239 267.224 237.349 266.77 237.503C266.321 237.651 265.957 237.875 265.679 238.176C265.406 238.472 265.27 238.875 265.27 239.386C265.27 240.085 265.528 240.614 266.045 240.972C266.568 241.324 267.23 241.5 268.031 241.5ZM287.631 229.909L282.79 243H280.745L275.904 229.909H278.086L281.7 240.341H281.836L285.45 229.909H287.631ZM293.74 243.307C292.911 243.307 292.158 243.151 291.482 242.838C290.805 242.52 290.268 242.062 289.871 241.466C289.473 240.864 289.274 240.136 289.274 239.284C289.274 238.534 289.422 237.926 289.717 237.46C290.013 236.989 290.408 236.619 290.902 236.352C291.396 236.085 291.942 235.886 292.538 235.756C293.141 235.619 293.746 235.511 294.354 235.432C295.149 235.33 295.794 235.253 296.288 235.202C296.788 235.145 297.152 235.051 297.379 234.92C297.612 234.79 297.729 234.562 297.729 234.239V234.17C297.729 233.33 297.499 232.676 297.038 232.21C296.584 231.744 295.893 231.511 294.967 231.511C294.007 231.511 293.254 231.722 292.709 232.142C292.163 232.562 291.78 233.011 291.558 233.489L289.649 232.807C289.99 232.011 290.445 231.392 291.013 230.949C291.587 230.5 292.212 230.187 292.888 230.011C293.57 229.83 294.24 229.739 294.899 229.739C295.32 229.739 295.803 229.79 296.348 229.892C296.899 229.989 297.43 230.19 297.942 230.497C298.459 230.804 298.888 231.267 299.229 231.886C299.57 232.506 299.74 233.335 299.74 234.375V243H297.729V241.227H297.626C297.49 241.511 297.263 241.815 296.945 242.139C296.626 242.463 296.203 242.739 295.675 242.966C295.146 243.193 294.501 243.307 293.74 243.307ZM294.047 241.5C294.842 241.5 295.513 241.344 296.058 241.031C296.609 240.719 297.024 240.315 297.303 239.821C297.587 239.327 297.729 238.807 297.729 238.261V236.42C297.643 236.523 297.456 236.616 297.166 236.702C296.882 236.781 296.553 236.852 296.178 236.915C295.808 236.972 295.447 237.023 295.095 237.068C294.749 237.108 294.467 237.142 294.251 237.17C293.729 237.239 293.24 237.349 292.786 237.503C292.337 237.651 291.973 237.875 291.695 238.176C291.422 238.472 291.286 238.875 291.286 239.386C291.286 240.085 291.544 240.614 292.061 240.972C292.584 241.324 293.246 241.5 294.047 241.5ZM306.411 240.614L306.275 241.534C306.178 242.182 306.031 242.875 305.832 243.614C305.638 244.352 305.437 245.048 305.227 245.702C305.016 246.355 304.843 246.875 304.707 247.261H303.173C303.246 246.898 303.343 246.418 303.462 245.821C303.582 245.224 303.701 244.557 303.82 243.818C303.945 243.085 304.048 242.335 304.127 241.568L304.229 240.614H306.411ZM318.183 225.545L322.683 232.807H322.82L327.32 225.545H329.808L324.32 234.273L329.808 243H327.32L322.82 235.875H322.683L318.183 243H315.695L321.32 234.273L315.695 225.545H318.183ZM332.559 225.545H335.082L341.013 240.034H341.218L347.15 225.545H349.673V243H347.695V229.739H347.525L342.07 243H340.161L334.707 229.739H334.536V243H332.559V225.545ZM353.911 243V225.545H356.024V241.125H364.138V243H353.911ZM370.138 240.614L370.001 241.534C369.905 242.182 369.757 242.875 369.558 243.614C369.365 244.352 369.163 245.048 368.953 245.702C368.743 246.355 368.57 246.875 368.433 247.261H366.899C366.973 246.898 367.07 246.418 367.189 245.821C367.308 245.224 367.428 244.557 367.547 243.818C367.672 243.085 367.774 242.335 367.854 241.568L367.956 240.614H370.138ZM387.569 225.545H389.683V238.023C389.683 239.136 389.478 240.082 389.069 240.861C388.66 241.639 388.083 242.23 387.339 242.634C386.594 243.037 385.717 243.239 384.705 243.239C383.751 243.239 382.901 243.065 382.157 242.719C381.413 242.366 380.827 241.866 380.401 241.219C379.975 240.571 379.762 239.801 379.762 238.909H381.842C381.842 239.403 381.964 239.835 382.208 240.205C382.458 240.568 382.799 240.852 383.231 241.057C383.663 241.261 384.154 241.364 384.705 241.364C385.313 241.364 385.83 241.236 386.256 240.98C386.683 240.724 387.006 240.349 387.228 239.855C387.455 239.355 387.569 238.744 387.569 238.023V225.545ZM403.464 229.909C403.362 229.045 402.947 228.375 402.219 227.898C401.492 227.42 400.6 227.182 399.543 227.182C398.771 227.182 398.094 227.307 397.515 227.557C396.941 227.807 396.492 228.151 396.168 228.588C395.85 229.026 395.691 229.523 395.691 230.08C395.691 230.545 395.802 230.946 396.023 231.281C396.251 231.611 396.54 231.886 396.893 232.108C397.245 232.324 397.614 232.503 398.001 232.645C398.387 232.781 398.742 232.892 399.066 232.977L400.839 233.455C401.293 233.574 401.799 233.739 402.356 233.949C402.918 234.159 403.455 234.446 403.967 234.81C404.484 235.168 404.91 235.628 405.245 236.19C405.58 236.753 405.748 237.443 405.748 238.261C405.748 239.205 405.501 240.057 405.006 240.818C404.518 241.58 403.802 242.185 402.859 242.634C401.921 243.082 400.782 243.307 399.441 243.307C398.191 243.307 397.109 243.105 396.194 242.702C395.285 242.298 394.569 241.736 394.046 241.014C393.529 240.293 393.237 239.455 393.168 238.5H395.35C395.407 239.159 395.629 239.705 396.015 240.136C396.407 240.562 396.901 240.881 397.498 241.091C398.1 241.295 398.748 241.398 399.441 241.398C400.248 241.398 400.972 241.267 401.614 241.006C402.256 240.739 402.765 240.369 403.14 239.898C403.515 239.42 403.702 238.864 403.702 238.227C403.702 237.648 403.54 237.176 403.217 236.812C402.893 236.449 402.467 236.153 401.938 235.926C401.41 235.699 400.839 235.5 400.225 235.33L398.077 234.716C396.714 234.324 395.634 233.764 394.839 233.037C394.043 232.31 393.646 231.358 393.646 230.182C393.646 229.205 393.91 228.352 394.438 227.625C394.972 226.892 395.688 226.324 396.586 225.92C397.489 225.511 398.498 225.307 399.612 225.307C400.737 225.307 401.737 225.509 402.612 225.912C403.487 226.31 404.18 226.855 404.691 227.548C405.208 228.241 405.481 229.028 405.509 229.909H403.464ZM423.95 234.273C423.95 236.114 423.618 237.705 422.953 239.045C422.288 240.386 421.376 241.42 420.217 242.148C419.058 242.875 417.734 243.239 416.246 243.239C414.757 243.239 413.433 242.875 412.274 242.148C411.115 241.42 410.203 240.386 409.538 239.045C408.874 237.705 408.541 236.114 408.541 234.273C408.541 232.432 408.874 230.841 409.538 229.5C410.203 228.159 411.115 227.125 412.274 226.398C413.433 225.67 414.757 225.307 416.246 225.307C417.734 225.307 419.058 225.67 420.217 226.398C421.376 227.125 422.288 228.159 422.953 229.5C423.618 230.841 423.95 232.432 423.95 234.273ZM421.905 234.273C421.905 232.761 421.652 231.486 421.146 230.446C420.646 229.406 419.967 228.619 419.109 228.085C418.257 227.551 417.303 227.284 416.246 227.284C415.189 227.284 414.232 227.551 413.374 228.085C412.521 228.619 411.842 229.406 411.337 230.446C410.837 231.486 410.587 232.761 410.587 234.273C410.587 235.784 410.837 237.06 411.337 238.099C411.842 239.139 412.521 239.926 413.374 240.46C414.232 240.994 415.189 241.261 416.246 241.261C417.303 241.261 418.257 240.994 419.109 240.46C419.967 239.926 420.646 239.139 421.146 238.099C421.652 237.06 421.905 235.784 421.905 234.273ZM441.345 225.545V243H439.3L429.788 229.295H429.618V243H427.504V225.545H429.55L439.095 239.284H439.266V225.545H441.345ZM455.904 243.307C455.075 243.307 454.322 243.151 453.646 242.838C452.969 242.52 452.433 242.062 452.035 241.466C451.637 240.864 451.438 240.136 451.438 239.284C451.438 238.534 451.586 237.926 451.881 237.46C452.177 236.989 452.572 236.619 453.066 236.352C453.56 236.085 454.106 235.886 454.702 235.756C455.305 235.619 455.91 235.511 456.518 235.432C457.313 235.33 457.958 235.253 458.452 235.202C458.952 235.145 459.316 235.051 459.543 234.92C459.776 234.79 459.893 234.562 459.893 234.239V234.17C459.893 233.33 459.663 232.676 459.202 232.21C458.748 231.744 458.058 231.511 457.131 231.511C456.171 231.511 455.418 231.722 454.873 232.142C454.327 232.562 453.944 233.011 453.722 233.489L451.813 232.807C452.154 232.011 452.609 231.392 453.177 230.949C453.751 230.5 454.376 230.187 455.052 230.011C455.734 229.83 456.404 229.739 457.063 229.739C457.484 229.739 457.967 229.79 458.512 229.892C459.063 229.989 459.594 230.19 460.106 230.497C460.623 230.804 461.052 231.267 461.393 231.886C461.734 232.506 461.904 233.335 461.904 234.375V243H459.893V241.227H459.79C459.654 241.511 459.427 241.815 459.109 242.139C458.79 242.463 458.367 242.739 457.839 242.966C457.31 243.193 456.665 243.307 455.904 243.307ZM456.211 241.5C457.006 241.5 457.677 241.344 458.222 241.031C458.773 240.719 459.188 240.315 459.467 239.821C459.751 239.327 459.893 238.807 459.893 238.261V236.42C459.808 236.523 459.62 236.616 459.33 236.702C459.046 236.781 458.717 236.852 458.342 236.915C457.972 236.972 457.612 237.023 457.259 237.068C456.913 237.108 456.631 237.142 456.415 237.17C455.893 237.239 455.404 237.349 454.95 237.503C454.501 237.651 454.137 237.875 453.859 238.176C453.586 238.472 453.45 238.875 453.45 239.386C453.45 240.085 453.708 240.614 454.225 240.972C454.748 241.324 455.41 241.5 456.211 241.5ZM467.587 235.125V243H465.575V229.909H467.518V231.955H467.689C467.996 231.29 468.462 230.756 469.087 230.352C469.712 229.943 470.518 229.739 471.507 229.739C472.393 229.739 473.169 229.92 473.834 230.284C474.499 230.642 475.016 231.188 475.385 231.92C475.754 232.648 475.939 233.568 475.939 234.682V243H473.928V234.818C473.928 233.79 473.661 232.989 473.126 232.415C472.592 231.835 471.859 231.545 470.928 231.545C470.286 231.545 469.712 231.685 469.206 231.963C468.706 232.241 468.311 232.648 468.021 233.182C467.732 233.716 467.587 234.364 467.587 235.125ZM484.558 243.273C483.467 243.273 482.504 242.997 481.668 242.446C480.833 241.889 480.18 241.105 479.708 240.094C479.237 239.077 479.001 237.875 479.001 236.489C479.001 235.114 479.237 233.92 479.708 232.909C480.18 231.898 480.836 231.116 481.677 230.565C482.518 230.014 483.489 229.739 484.592 229.739C485.444 229.739 486.117 229.881 486.612 230.165C487.112 230.443 487.492 230.761 487.754 231.119C488.021 231.472 488.228 231.761 488.376 231.989H488.546V225.545H490.558V243H488.614V240.989H488.376C488.228 241.227 488.018 241.528 487.745 241.892C487.472 242.25 487.083 242.571 486.577 242.855C486.072 243.134 485.398 243.273 484.558 243.273ZM484.83 241.466C485.637 241.466 486.319 241.256 486.876 240.835C487.433 240.409 487.856 239.821 488.146 239.071C488.435 238.315 488.58 237.443 488.58 236.455C488.58 235.477 488.438 234.622 488.154 233.889C487.87 233.151 487.45 232.577 486.893 232.168C486.336 231.753 485.648 231.545 484.83 231.545C483.978 231.545 483.268 231.764 482.7 232.202C482.137 232.634 481.714 233.222 481.43 233.966C481.151 234.705 481.012 235.534 481.012 236.455C481.012 237.386 481.154 238.233 481.438 238.994C481.728 239.75 482.154 240.352 482.717 240.801C483.285 241.244 483.989 241.466 484.83 241.466ZM500.043 225.545H502.464L507.305 233.693H507.509L512.35 225.545H514.771L508.464 235.807V243H506.35V235.807L500.043 225.545ZM516.439 243H514.223L520.632 225.545H522.814L529.223 243H527.007L521.791 228.307H521.655L516.439 243ZM517.257 236.182H526.189V238.057H517.257V236.182ZM531.942 225.545H534.464L540.396 240.034H540.601L546.533 225.545H549.055V243H547.078V229.739H546.908L541.453 243H539.544L534.089 229.739H533.919V243H531.942V225.545ZM553.293 243V225.545H555.407V241.125H563.521V243H553.293ZM579.1 229.909V231.614H572.043V229.909H579.1ZM574.157 243V228.102C574.157 227.352 574.333 226.727 574.685 226.227C575.038 225.727 575.495 225.352 576.058 225.102C576.62 224.852 577.214 224.727 577.839 224.727C578.333 224.727 578.737 224.767 579.049 224.847C579.362 224.926 579.594 225 579.748 225.068L579.168 226.807C579.066 226.773 578.924 226.73 578.742 226.679C578.566 226.628 578.333 226.602 578.043 226.602C577.379 226.602 576.898 226.77 576.603 227.105C576.313 227.44 576.168 227.932 576.168 228.58V243H574.157ZM586.698 243.273C585.516 243.273 584.479 242.991 583.587 242.429C582.701 241.866 582.008 241.08 581.508 240.068C581.013 239.057 580.766 237.875 580.766 236.523C580.766 235.159 581.013 233.969 581.508 232.952C582.008 231.935 582.701 231.145 583.587 230.582C584.479 230.02 585.516 229.739 586.698 229.739C587.88 229.739 588.914 230.02 589.8 230.582C590.692 231.145 591.386 231.935 591.88 232.952C592.38 233.969 592.63 235.159 592.63 236.523C592.63 237.875 592.38 239.057 591.88 240.068C591.386 241.08 590.692 241.866 589.8 242.429C588.914 242.991 587.88 243.273 586.698 243.273ZM586.698 241.466C587.596 241.466 588.335 241.236 588.914 240.776C589.494 240.315 589.923 239.71 590.201 238.96C590.479 238.21 590.619 237.398 590.619 236.523C590.619 235.648 590.479 234.832 590.201 234.077C589.923 233.321 589.494 232.71 588.914 232.244C588.335 231.778 587.596 231.545 586.698 231.545C585.8 231.545 585.062 231.778 584.482 232.244C583.903 232.71 583.474 233.321 583.195 234.077C582.917 234.832 582.778 235.648 582.778 236.523C582.778 237.398 582.917 238.21 583.195 238.96C583.474 239.71 583.903 240.315 584.482 240.776C585.062 241.236 585.8 241.466 586.698 241.466ZM595.7 243V229.909H597.643V231.886H597.78C598.018 231.239 598.45 230.713 599.075 230.31C599.7 229.906 600.405 229.705 601.189 229.705C601.337 229.705 601.521 229.707 601.743 229.713C601.964 229.719 602.132 229.727 602.246 229.739V231.784C602.178 231.767 602.021 231.741 601.777 231.707C601.538 231.668 601.286 231.648 601.018 231.648C600.382 231.648 599.814 231.781 599.314 232.048C598.82 232.31 598.428 232.673 598.138 233.139C597.854 233.599 597.712 234.125 597.712 234.716V243H595.7ZM604.63 243V229.909H606.573V231.955H606.744C607.016 231.256 607.457 230.713 608.065 230.327C608.673 229.935 609.403 229.739 610.255 229.739C611.119 229.739 611.837 229.935 612.411 230.327C612.991 230.713 613.442 231.256 613.766 231.955H613.903C614.238 231.278 614.741 230.741 615.411 230.344C616.082 229.94 616.886 229.739 617.823 229.739C618.994 229.739 619.951 230.105 620.695 230.838C621.44 231.565 621.812 232.699 621.812 234.239V243H619.8V234.239C619.8 233.273 619.536 232.582 619.008 232.168C618.479 231.753 617.857 231.545 617.141 231.545C616.221 231.545 615.508 231.824 615.002 232.381C614.496 232.932 614.244 233.631 614.244 234.477V243H612.198V234.034C612.198 233.29 611.957 232.69 611.474 232.236C610.991 231.776 610.369 231.545 609.607 231.545C609.085 231.545 608.596 231.685 608.141 231.963C607.692 232.241 607.329 232.628 607.05 233.122C606.778 233.611 606.641 234.176 606.641 234.818V243H604.63ZM629.342 243.307C628.512 243.307 627.759 243.151 627.083 242.838C626.407 242.52 625.87 242.062 625.472 241.466C625.075 240.864 624.876 240.136 624.876 239.284C624.876 238.534 625.023 237.926 625.319 237.46C625.614 236.989 626.009 236.619 626.504 236.352C626.998 236.085 627.543 235.886 628.14 235.756C628.742 235.619 629.347 235.511 629.955 235.432C630.751 235.33 631.396 235.253 631.89 235.202C632.39 235.145 632.754 235.051 632.981 234.92C633.214 234.79 633.33 234.562 633.33 234.239V234.17C633.33 233.33 633.1 232.676 632.64 232.21C632.185 231.744 631.495 231.511 630.569 231.511C629.609 231.511 628.856 231.722 628.31 232.142C627.765 232.562 627.381 233.011 627.16 233.489L625.251 232.807C625.592 232.011 626.046 231.392 626.614 230.949C627.188 230.5 627.813 230.187 628.489 230.011C629.171 229.83 629.842 229.739 630.501 229.739C630.921 229.739 631.404 229.79 631.95 229.892C632.501 229.989 633.032 230.19 633.543 230.497C634.06 230.804 634.489 231.267 634.83 231.886C635.171 232.506 635.342 233.335 635.342 234.375V243H633.33V241.227H633.228C633.092 241.511 632.864 241.815 632.546 242.139C632.228 242.463 631.805 242.739 631.276 242.966C630.748 243.193 630.103 243.307 629.342 243.307ZM629.648 241.5C630.444 241.5 631.114 241.344 631.66 241.031C632.211 240.719 632.626 240.315 632.904 239.821C633.188 239.327 633.33 238.807 633.33 238.261V236.42C633.245 236.523 633.058 236.616 632.768 236.702C632.484 236.781 632.154 236.852 631.779 236.915C631.41 236.972 631.049 237.023 630.697 237.068C630.35 237.108 630.069 237.142 629.853 237.17C629.33 237.239 628.842 237.349 628.387 237.503C627.938 237.651 627.575 237.875 627.296 238.176C627.023 238.472 626.887 238.875 626.887 239.386C626.887 240.085 627.146 240.614 627.663 240.972C628.185 241.324 628.847 241.5 629.648 241.5ZM644.706 229.909V231.614H637.922V229.909H644.706ZM639.899 226.773H641.911V239.25C641.911 239.818 641.993 240.244 642.158 240.528C642.328 240.807 642.544 240.994 642.805 241.091C643.072 241.182 643.354 241.227 643.649 241.227C643.871 241.227 644.053 241.216 644.195 241.193C644.337 241.165 644.45 241.142 644.536 241.125L644.945 242.932C644.808 242.983 644.618 243.034 644.374 243.085C644.129 243.142 643.82 243.17 643.445 243.17C642.876 243.17 642.32 243.048 641.774 242.804C641.234 242.56 640.786 242.188 640.428 241.688C640.075 241.188 639.899 240.557 639.899 239.795V226.773ZM653.425 229.909V231.614H646.641V229.909H653.425ZM648.618 226.773H650.629V239.25C650.629 239.818 650.712 240.244 650.876 240.528C651.047 240.807 651.263 240.994 651.524 241.091C651.791 241.182 652.072 241.227 652.368 241.227C652.589 241.227 652.771 241.216 652.913 241.193C653.055 241.165 653.169 241.142 653.254 241.125L653.663 242.932C653.527 242.983 653.337 243.034 653.092 243.085C652.848 243.142 652.538 243.17 652.163 243.17C651.595 243.17 651.038 243.048 650.493 242.804C649.953 242.56 649.504 242.188 649.146 241.688C648.794 241.188 648.618 240.557 648.618 239.795V226.773ZM661.798 243.273C660.537 243.273 659.449 242.994 658.534 242.438C657.625 241.875 656.923 241.091 656.429 240.085C655.94 239.074 655.696 237.898 655.696 236.557C655.696 235.216 655.94 234.034 656.429 233.011C656.923 231.983 657.611 231.182 658.491 230.608C659.378 230.028 660.412 229.739 661.594 229.739C662.276 229.739 662.949 229.852 663.614 230.08C664.278 230.307 664.884 230.676 665.429 231.188C665.974 231.693 666.409 232.364 666.733 233.199C667.057 234.034 667.219 235.062 667.219 236.284V237.136H657.128V235.398H665.173C665.173 234.659 665.026 234 664.73 233.42C664.44 232.841 664.026 232.384 663.486 232.048C662.952 231.713 662.321 231.545 661.594 231.545C660.793 231.545 660.099 231.744 659.514 232.142C658.935 232.534 658.489 233.045 658.176 233.676C657.864 234.307 657.707 234.983 657.707 235.705V236.864C657.707 237.852 657.878 238.69 658.219 239.378C658.565 240.06 659.045 240.58 659.659 240.938C660.273 241.29 660.986 241.466 661.798 241.466C662.327 241.466 662.804 241.392 663.23 241.244C663.662 241.091 664.034 240.864 664.347 240.562C664.659 240.256 664.901 239.875 665.071 239.42L667.014 239.966C666.81 240.625 666.466 241.205 665.983 241.705C665.5 242.199 664.903 242.585 664.193 242.864C663.483 243.136 662.685 243.273 661.798 243.273ZM670.278 243V229.909H672.222V231.886H672.358C672.597 231.239 673.028 230.713 673.653 230.31C674.278 229.906 674.983 229.705 675.767 229.705C675.915 229.705 676.099 229.707 676.321 229.713C676.543 229.719 676.71 229.727 676.824 229.739V231.784C676.756 231.767 676.599 231.741 676.355 231.707C676.116 231.668 675.864 231.648 675.597 231.648C674.96 231.648 674.392 231.781 673.892 232.048C673.398 232.31 673.006 232.673 672.716 233.139C672.432 233.599 672.29 234.125 672.29 234.716V243H670.278Z" fill="#525252"/>
</svg>
